<svg id="Group_433" data-name="Group 433" xmlns="http://www.w3.org/2000/svg" width="268.141" height="53" viewBox="0 0 268.141 53">
  <path id="Rectangle_124" data-name="Rectangle 124" d="M.236,0H3.961A.236.236,0,0,1,4.2.236v15.6a.236.236,0,0,1-.236.236H.237A.237.237,0,0,1,0,15.838V.236A.236.236,0,0,1,.236,0Z" transform="translate(17.457 36.925)" fill="#585858"/>
  <path id="Rectangle_125" data-name="Rectangle 125" d="M.236,0H3.96a.233.233,0,0,1,.233.233V15.84a.236.236,0,0,1-.236.236H.237A.237.237,0,0,1,0,15.838V.236A.236.236,0,0,1,.236,0Z" transform="translate(31.408 36.925)" fill="#585858"/>
  <path id="Rectangle_126" data-name="Rectangle 126" d="M.236,0H3.961A.236.236,0,0,1,4.2.236V22.772a.236.236,0,0,1-.236.236H.237A.237.237,0,0,1,0,22.771V.236A.236.236,0,0,1,.236,0Z" transform="translate(24.46 29.992)" fill="#585858"/>
  <path id="Rectangle_127" data-name="Rectangle 127" d="M.237,0H3.961A.236.236,0,0,1,4.2.236v15.6a.237.237,0,0,1-.237.237H.237A.237.237,0,0,1,0,15.838V.237A.237.237,0,0,1,.237,0Z" transform="translate(17.457 0)" fill="#585858"/>
  <path id="Rectangle_128" data-name="Rectangle 128" d="M.236,0H3.958a.236.236,0,0,1,.236.236v15.6a.237.237,0,0,1-.237.237H.237A.237.237,0,0,1,0,15.838V.236A.236.236,0,0,1,.236,0Z" transform="translate(31.408 0)" fill="#585858"/>
  <path id="Rectangle_129" data-name="Rectangle 129" d="M.236,0H3.962A.237.237,0,0,1,4.2.237v7.9a.236.236,0,0,1-.236.236H.236A.236.236,0,0,1,0,8.133V.236A.236.236,0,0,1,.236,0Z" transform="translate(31.744 22.307)" fill="#585858"/>
  <path id="Rectangle_130" data-name="Rectangle 130" d="M.236,0H3.959a.234.234,0,0,1,.234.234v7.9a.236.236,0,0,1-.236.236H.236A.236.236,0,0,1,0,8.133V.236A.236.236,0,0,1,.236,0Z" transform="translate(17.108 22.307)" fill="#585858"/>
  <path id="Rectangle_131" data-name="Rectangle 131" d="M.237,0H3.961A.236.236,0,0,1,4.2.236V22.772a.236.236,0,0,1-.236.236H.237A.237.237,0,0,1,0,22.771V.237A.237.237,0,0,1,.237,0Z" transform="translate(24.46 0)" fill="#585858"/>
  <path id="Rectangle_132" data-name="Rectangle 132" d="M.237,0H22.771a.237.237,0,0,1,.237.237V3.96a.237.237,0,0,1-.237.237H.234A.234.234,0,0,1,0,3.963V.237A.237.237,0,0,1,.237,0Z" transform="translate(30.074 17.021)" fill="#585858"/>
  <path id="Rectangle_133" data-name="Rectangle 133" d="M.237,0H22.771a.237.237,0,0,1,.237.237V3.963a.234.234,0,0,1-.234.234H.234A.234.234,0,0,1,0,3.963V.237A.237.237,0,0,1,.237,0Z" transform="translate(30.074 31.654)" fill="#585858"/>
  <path id="Rectangle_134" data-name="Rectangle 134" d="M.236,0H15.9a.234.234,0,0,1,.234.234V3.961A.234.234,0,0,1,15.9,4.2H.236A.236.236,0,0,1,0,3.96V.236A.236.236,0,0,1,.236,0Z" transform="translate(36.945 24.365)" fill="#585858"/>
  <path id="Rectangle_135" data-name="Rectangle 135" d="M.236,0H8.295a.234.234,0,0,1,.234.234V3.96a.236.236,0,0,1-.236.236H.236A.236.236,0,0,1,0,3.96V.236A.236.236,0,0,1,.236,0Z" transform="translate(22.311 24.365)" fill="#585858"/>
  <path id="Rectangle_136" data-name="Rectangle 136" d="M.237,0H15.906a.234.234,0,0,1,.234.234V3.958A.237.237,0,0,1,15.9,4.2H.236A.236.236,0,0,1,0,3.96V.237A.237.237,0,0,1,.237,0Z" transform="translate(0 24.365)" fill="#585858"/>
  <path id="Rectangle_137" data-name="Rectangle 137" d="M.234,0H22.769a.237.237,0,0,1,.237.237V3.961a.236.236,0,0,1-.236.236H.237A.237.237,0,0,1,0,3.96V.234A.234.234,0,0,1,.234,0Z" transform="translate(0.016 17.021)" fill="#585858"/>
  <path id="Rectangle_138" data-name="Rectangle 138" d="M.234,0H22.769a.237.237,0,0,1,.237.237V3.961a.236.236,0,0,1-.236.236H.234A.234.234,0,0,1,0,3.963V.234A.234.234,0,0,1,.234,0Z" transform="translate(0.016 31.654)" fill="#585858"/>
  <path id="Path_727" data-name="Path 727" d="M68.561,68.478l-3.343,9.407h6.589ZM57.547,86.867l9.179-23.274H70.4l9.146,23.274H74.756l-2.129-5.8H64.464l-2.132,5.8Z" transform="translate(5.482 -51.885)" fill="#585858"/>
  <path id="Path_728" data-name="Path 728" d="M76.469,86.868V63.593h4.524V82.9H92.86v3.967Z" transform="translate(12.686 -51.885)" fill="#585858"/>
  <rect id="Rectangle_139" data-name="Rectangle 139" width="4.524" height="23.243" transform="translate(110.102 11.74)" fill="#585858"/>
  <path id="Path_729" data-name="Path 729" d="M115.593,84.29a8.373,8.373,0,0,1-6.2,2.786,9.261,9.261,0,0,1-4.2-.983,11.233,11.233,0,0,1-3.424-2.639,12.555,12.555,0,0,1-2.3-3.82,12.358,12.358,0,0,1-.835-4.49,12.17,12.17,0,0,1,.835-4.508,11.573,11.573,0,0,1,2.329-3.7,11.232,11.232,0,0,1,3.506-2.524,11.125,11.125,0,0,1,9.819.442,8.844,8.844,0,0,1,3.409,3.706l-3.376,2.489a6.263,6.263,0,0,0-2.344-2.654,6.171,6.171,0,0,0-3.294-.92,5.432,5.432,0,0,0-2.607.624,6.032,6.032,0,0,0-1.984,1.705,8.358,8.358,0,0,0-1.277,2.491,9.557,9.557,0,0,0-.458,2.984,9.355,9.355,0,0,0,.49,3.065,7.667,7.667,0,0,0,1.378,2.474,6.581,6.581,0,0,0,2.082,1.655,5.743,5.743,0,0,0,2.639.607q3.212,0,5.8-3.18v-1.64h-4.687V74.947h8.425V86.912h-3.738Z" transform="translate(21.128 -51.93)" fill="#585858"/>
  <path id="Path_730" data-name="Path 730" d="M122.163,71.952V86.868h-4.524V63.593h3.508L133.276,78.87V63.625H137.8V86.868h-3.671Z" transform="translate(28.359 -51.885)" fill="#585858"/>
  <path id="Path_731" data-name="Path 731" d="M155.923,86.868V71.461l-6,11.473h-2.457l-6-11.473V86.868h-4.524V63.593h4.852l6.884,13.243,6.949-13.243h4.819V86.868Z" transform="translate(35.707 -51.885)" fill="#585858"/>
  <path id="Path_732" data-name="Path 732" d="M174.828,82.9v3.967H158.666V63.593h15.867V67.56H163.19v5.6h9.8v3.671h-9.8V82.9Z" transform="translate(43.978 -51.885)" fill="#585858"/>
  <path id="Path_733" data-name="Path 733" d="M178.718,71.952V86.868h-4.524V63.593H177.7L189.83,78.87V63.625h4.524V86.868h-3.671Z" transform="translate(49.889 -51.885)" fill="#585858"/>
  <path id="Path_734" data-name="Path 734" d="M211.445,67.56h-7.408V86.868h-4.524V67.56h-7.441V63.593h19.373Z" transform="translate(56.695 -51.885)" fill="#585858"/>
  <path id="Path_735" data-name="Path 735" d="M98.492,85.824h2.345v.821h-.686v5.588h.686v.819H98.492v-.819h.724v-2.6h-4.18v2.6h.724v.819H93.415v-.819H94.1V86.645h-.686v-.821H95.76v.821h-.724v2.189h4.18V86.645h-.724Z" transform="translate(19.137 -43.422)" fill="#585858"/>
  <path id="Path_736" data-name="Path 736" d="M102.254,85.824h5.178v2.045h-.977V86.648h-2.579v2.314h2.169v.819h-2.169v2.452h2.579V91.012h.977v2.04h-5.178v-.819h.687V86.648h-.687Z" transform="translate(22.502 -43.422)" fill="#585858"/>
  <path id="Path_737" data-name="Path 737" d="M111.144,89.8h2.23l-1.124-3.232Zm2.478,2.431h.6l-.573-1.639h-2.778l-.559,1.639h.744v.822h-2.346v-.822h.63l2.249-6.408H113l2.245,6.408h.725v.822h-2.346Z" transform="translate(24.96 -43.422)" fill="#585858"/>
  <path id="Path_738" data-name="Path 738" d="M116.971,85.824h2.344v.824h-.724v5.585h2.493a.361.361,0,0,0,.152-.037.524.524,0,0,0,.138-.093.439.439,0,0,0,.1-.131.333.333,0,0,0,.039-.149v-.911h.906v2.14h-5.45v-.819h.686V86.648h-.686Z" transform="translate(28.105 -43.422)" fill="#585858"/>
  <path id="Path_739" data-name="Path 739" d="M125,92.232h.662V86.606h-1.65v1.126h-.977V85.824h6.447v1.908h-.977V86.606H126.6v5.626h.742v.821H125Z" transform="translate(30.414 -43.422)" fill="#585858"/>
  <path id="Path_740" data-name="Path 740" d="M135.895,85.824h2.345v.821h-.686v5.588h.686v.819h-2.345v-.819h.724v-2.6h-4.18v2.6h.724v.819h-2.345v-.819h.686V86.645h-.686v-.821h2.345v.821h-.724v2.189h4.18V86.645h-.724Z" transform="translate(33.376 -43.422)" fill="#585858"/>
  <path id="Path_741" data-name="Path 741" d="M145.3,86.648v2.275h1.3a1.634,1.634,0,0,0,.5-.073,1.157,1.157,0,0,0,.391-.217,1.024,1.024,0,0,0,.258-.359,1.239,1.239,0,0,0,.091-.5,1.077,1.077,0,0,0-.323-.833,1.5,1.5,0,0,0-1.034-.3Zm-1.621-.824H146.6a2.959,2.959,0,0,1,.893.127,2.014,2.014,0,0,1,.706.371,1.684,1.684,0,0,1,.464.613,2.048,2.048,0,0,1,.164.844,1.738,1.738,0,0,1-.163.746,1.857,1.857,0,0,1-.458.614,2.214,2.214,0,0,1-.707.413,2.625,2.625,0,0,1-.918.155H145.3v2.527h.725v.819h-2.346v-.819h.688V86.648h-.688Z" transform="translate(38.272 -43.422)" fill="#585858"/>
  <path id="Path_742" data-name="Path 742" d="M150.547,85.824h2.346v.824h-.725v5.585h2.495a.356.356,0,0,0,.15-.037.532.532,0,0,0,.139-.093.458.458,0,0,0,.1-.131.333.333,0,0,0,.039-.149v-.911H156v2.14h-5.45v-.819h.688V86.648h-.688Z" transform="translate(40.887 -43.422)" fill="#585858"/>
  <path id="Path_743" data-name="Path 743" d="M159.471,89.8h2.23l-1.124-3.232Zm2.478,2.431h.6l-.572-1.639H159.2l-.559,1.639h.744v.822h-2.346v-.822h.63l2.251-6.408h1.407l2.245,6.408h.725v.822h-2.346Z" transform="translate(43.358 -43.422)" fill="#585858"/>
  <path id="Path_744" data-name="Path 744" d="M169.77,85.827h2.345v.824H171.5v6.4h-1.221l-3.361-5.993v5.174h.744v.819h-2.347v-.819h.667V86.651H165.3v-.834h1.945l3.3,5.937.038-.229V86.651h-.811Z" transform="translate(46.502 -43.425)" fill="#585858"/>
  <rect id="Rectangle_140" data-name="Rectangle 140" width="44.426" height="1.184" transform="translate(63.03 44.486)" fill="#585858"/>
  <rect id="Rectangle_141" data-name="Rectangle 141" width="44.428" height="1.184" transform="translate(223.713 44.486)" fill="#585858"/>
</svg>
