<svg id="Group_425" data-name="Group 425" xmlns="http://www.w3.org/2000/svg" width="257.497" height="50.006" viewBox="0 0 257.497 50.006">
  <path id="Path_638" data-name="Path 638" d="M265.473,84.014a4.447,4.447,0,1,1-4.416-4.538,4.455,4.455,0,0,1,4.416,4.538m-7.962,0a3.538,3.538,0,1,0,3.546-3.776,3.6,3.6,0,0,0-3.546,3.776m3.427-2.484c1.2,0,1.984.353,1.984,1.417a1.5,1.5,0,0,1-1,1.523l.291.512A14.112,14.112,0,0,0,263.1,86.3c.06.086-.1.132-.346.132h-.285c-.295,0-.377-.058-.428-.117a9.05,9.05,0,0,1-.66-1l-.43-.745h-.64v1.753c0,.049-.1.107-.286.107h-.387c-.184,0-.3-.058-.3-.107V81.53Zm-.63,2.276h.713c.686,0,.96-.331.96-.784,0-.6-.567-.695-1.068-.695h-.605ZM75.882,50.463a1.4,1.4,0,0,0-1.388,1.4V80.382a29.061,29.061,0,0,1-6.553.738c-4.914,0-6.693-1.83-6.693-7.2V51.865a1.343,1.343,0,0,0-1.331-1.4H52.406V73.982c0,11.037,5.827,14.627,15.269,14.627a62.525,62.525,0,0,0,15.632-2.345v-35.8Zm114.7,37.722a1.4,1.4,0,0,0,1.388-1.4V58.008a29.277,29.277,0,0,1,6.552-.735c4.917,0,6.7,1.829,6.7,7.2V86.782a1.34,1.34,0,0,0,1.33,1.4h7.511V64.411c0-11.041-5.826-14.627-15.268-14.627a62.632,62.632,0,0,0-15.634,2.346V88.185ZM160.634,49.833c-9.721,0-15.856,5.272-15.856,16.548v5.656c0,12.493,6.636,16.548,13.825,16.548a12.105,12.105,0,0,0,8.373-4.055v2.335a1.367,1.367,0,0,0,1.324,1.313h7.493V51.992a61.338,61.338,0,0,0-15.159-2.16m6.342,29.188a8.6,8.6,0,0,1-6.342,2.363c-4.928,0-7.048-3.009-7.048-9.431V66.725c0-7.4,2.726-9.427,7.048-9.427a33.257,33.257,0,0,1,6.342.452Zm69.116-29.188c-9.722,0-15.856,5.272-15.856,16.548v5.656c0,12.493,6.635,16.548,13.824,16.548a12.1,12.1,0,0,0,8.375-4.055v2.335a1.366,1.366,0,0,0,1.325,1.313h7.5V51.992a61.389,61.389,0,0,0-15.163-2.16m6.343,29.188a8.611,8.611,0,0,1-6.343,2.363c-4.928,0-7.044-3.009-7.044-9.431V66.725c0-7.4,2.722-9.427,7.044-9.427a33.25,33.25,0,0,1,6.343.452ZM7.976,88.178h7.911a1.415,1.415,0,0,0,1.334-1.337V65.966h14.6a4.174,4.174,0,0,1,4.228,4V86.841a1.358,1.358,0,0,0,1.312,1.337h7.921V38.6H37.358a1.339,1.339,0,0,0-1.312,1.247V58.47H20.852a3.63,3.63,0,0,1-3.631-3.531V39.85A1.359,1.359,0,0,0,15.887,38.6H7.976ZM125.139,49.8A19,19,0,0,0,115.2,52.68c-2.711-2.037-6.405-2.881-10.976-2.881a39.92,39.92,0,0,0-13.539,2.479V88.187h7.482a1.351,1.351,0,0,0,1.329-1.4V57.925a16.087,16.087,0,0,1,4.336-.651c5.174,0,6.431,2.076,6.431,7.2V86.782a1.4,1.4,0,0,0,1.337,1.4h6.163a1.321,1.321,0,0,0,1.337-1.4V59.041a8.023,8.023,0,0,1,5.16-1.767c4,0,5.614,1.8,5.614,6.691V86.782a1.38,1.38,0,0,0,1.328,1.4h7.469V62.757c0-9.641-6.014-12.958-13.533-12.958" transform="translate(-7.976 -38.603)" fill="#585858"/>
</svg>
