<svg id="Group_432" data-name="Group 432" xmlns="http://www.w3.org/2000/svg" width="160.847" height="52.791" viewBox="0 0 160.847 52.791">
  <path id="Path_704" data-name="Path 704" d="M42.7,96.649H18.627V54.566H43.488a8.036,8.036,0,0,0-.233,3.96c.321,1.393.321,1.287,0,1.553s-.373,0-.964-.16a10.572,10.572,0,0,0-1.392-.268,16.466,16.466,0,0,0-5.567-.642c-2.624.269-7.283,2.358-9.156,8.835-1.088,3.758-1.071,6.37,1.392,10.815s4.223,10.784,7.013,13.384c2.356,2.195,3.588,2.3,5.837,1.661.749-.214,1.659-.108,2.034-.375s.964-.8,1.232-.642-.215.374-.482,1.5-.5,2.466-.5,2.466" transform="translate(-18.627 -43.859)" fill="#585858"/>
  <path id="Path_705" data-name="Path 705" d="M57.231,54.565H73.912V96.649H49.425a13.187,13.187,0,0,0-.676-2.252c-.374-.8-.535-1.177-.159-1.6s.75-.911,1.551-.161a6.082,6.082,0,0,0,3.105,1.177,7.7,7.7,0,0,0,1.982.215,3.986,3.986,0,0,0,2.462-1.018,11.007,11.007,0,0,0,2.034-2.569,36.033,36.033,0,0,0,2.409-5.783A36.674,36.674,0,0,1,65.4,77.532a12.058,12.058,0,0,0,2.3-7.869c-.214-4.336-1.177-5.407-2.409-7.121a8.529,8.529,0,0,0-4.175-3.319,29.374,29.374,0,0,0-7.657-1.179,2.852,2.852,0,0,0-1.552.482,4.776,4.776,0,0,1,1.767-1.339c1.177-.535,1.071-.8,1.874-1.23a7.939,7.939,0,0,0,1.681-1.393" transform="translate(-21.606 -43.858)" fill="#585858"/>
  <path id="Path_706" data-name="Path 706" d="M48.437,57.6c.374.214,1.337-.427,1.659-.855a23.639,23.639,0,0,1,3.372-2.411,6.634,6.634,0,0,0,3.427-3.1,27.886,27.886,0,0,0,1.392-4.927,10.2,10.2,0,0,1,1.125-2.783.792.792,0,0,0,.16-.856,4.831,4.831,0,0,1-1.712.427c-1.124.108-6.1,2.944-8.781,7.977a12.491,12.491,0,0,0-1.032,3.738c-.362,1.89.139,2.65.391,2.793" transform="translate(-21.56 -42.667)" fill="#585858"/>
  <path id="Path_707" data-name="Path 707" d="M92.9,69.954c-4-1.611-5.977-3.764-5.977-7.65,0-4.184,3.887-7.77,8.371-7.77,3.708,0,6.286,1.5,7.484,2.988l-2.7,3.286c-1.8-1.792-2.871-2.212-4.786-2.212S91.11,59.914,91.11,62.3s2.09,3.227,4.185,4.064l2.389,1.018c2.7,1.134,5.7,2.988,5.7,7.47,0,4.659-4.376,8.362-8.982,8.362a10.651,10.651,0,0,1-8.369-3.883l2.809-3.4c1.672,2.209,3.586,3.225,5.559,3.225,2.569,0,4.785-1.607,4.785-4s-1.618-3.285-3.767-4.183Z" transform="translate(-25.376 -43.855)" fill="#585858"/>
  <path id="Path_708" data-name="Path 708" d="M120.83,54.534a10.755,10.755,0,0,1,9.449,4.783l-3.169,2.809a6.976,6.976,0,0,0-6.28-3.409c-4.836,0-7.106,5.323-7.106,10.166s2.27,10.154,7.106,10.154a6.978,6.978,0,0,0,6.28-3.4l3.169,2.807a10.749,10.749,0,0,1-9.449,4.778c-7.106,0-11.408-6.69-11.408-14.335s4.3-14.349,11.408-14.349" transform="translate(-27.719 -43.855)" fill="#585858"/>
  <path id="Path_709" data-name="Path 709" d="M155.89,70.793a10.534,10.534,0,0,0,4.543,9.08l-3.108,3.106A15.589,15.589,0,0,1,153.5,78.5a9.5,9.5,0,0,1-8.069,4.719c-4.96,0-8.731-3.526-8.731-8.955,0-5.919,4.065-8.969,10.522-8.969h4.487c0-3.769-1.912-6.7-5.681-6.7a4.937,4.937,0,0,0-3.468,1.437L140.047,56.8a8.518,8.518,0,0,1,5.98-2.269c6.218,0,9.863,4.842,9.863,10.461Zm-4.183,0V69.061h-4.487c-4.48,0-6.214,2.031-6.214,5.2a4.807,4.807,0,0,0,4.424,4.893c4.3,0,6.574-4.953,6.574-4.953a31.438,31.438,0,0,1-.3-3.411" transform="translate(-30.45 -43.855)" fill="#585858"/>
  <path id="Path_710" data-name="Path 710" d="M167.925,66.975c0-3.946-.008-11.388-.008-11.388l4.145-.027-.012,3.1s3.626-4.233,8.312-4.24c4.545,0,7.893,3.47,7.893,8.551V82.629h-4.188V63.567a4.372,4.372,0,0,0-4.662-4.6c-4.542,0-7.291,6.276-7.291,6.276V82.629h-4.189Z" transform="translate(-33.576 -43.844)" fill="#585858"/>
  <path id="Path_711" data-name="Path 711" d="M87.99,97.236v3.158h-.873v-7.07h.873v3.039h2.781V93.325h.871v7.07h-.871V97.236Z" transform="translate(-25.485 -47.74)" fill="#585858"/>
  <path id="Path_712" data-name="Path 712" d="M98.963,99.522h2.415v.871H98.091V93.325h3.169V94.2h-2.3v2.051h1.945v.871H98.963Z" transform="translate(-26.584 -47.74)" fill="#585858"/>
  <path id="Path_713" data-name="Path 713" d="M107.513,100.512l-.871-.259,2.533-6.928h.612l2.533,6.928-.873.259-.577-1.662H108.09Zm1.968-5.692-1.1,3.159h2.191Z" transform="translate(-27.44 -47.74)" fill="#585858"/>
  <path id="Path_714" data-name="Path 714" d="M119.167,99.522h2.356v.871H118.3V93.325h.871Z" transform="translate(-28.607 -47.74)" fill="#585858"/>
  <path id="Path_715" data-name="Path 715" d="M129.314,100.394h-.873V94.2h-1.767v-.873h4.407V94.2h-1.767Z" transform="translate(-29.446 -47.74)" fill="#585858"/>
  <path id="Path_716" data-name="Path 716" d="M137.812,97.236v3.158h-.871v-7.07h.871v3.039h2.781V93.325h.871v7.07h-.871V97.236Z" transform="translate(-30.474 -47.74)" fill="#585858"/>
  <path id="Path_717" data-name="Path 717" d="M156.525,93.325a2.363,2.363,0,1,1,0,4.713h-.683v2.356h-.871V93.325Zm-.683.871v2.97h.683a1.493,1.493,0,1,0,0-2.97Z" transform="translate(-32.28 -47.74)" fill="#585858"/>
  <path id="Path_718" data-name="Path 718" d="M165.872,99.522h2.357v.871H165V93.325h.873Z" transform="translate(-33.284 -47.74)" fill="#585858"/>
  <path id="Path_719" data-name="Path 719" d="M174.226,100.512l-.872-.259,2.533-6.928h.613l2.534,6.928-.873.259-.577-1.662H174.8Zm1.967-5.692-1.1,3.159h2.19Z" transform="translate(-34.121 -47.74)" fill="#585858"/>
  <path id="Path_720" data-name="Path 720" d="M189.132,100.394l-3.253-5.3v5.3h-.871v-7.07h.871l3.253,5.3v-5.3H190v7.07Z" transform="translate(-35.287 -47.74)" fill="#585858"/>
  <path id="Path_721" data-name="Path 721" d="M47.53,64.545c-.058-.373.589.053.589.695s.268.7.268,1.5a25.317,25.317,0,0,1,0,3.48,4.019,4.019,0,0,0-.215,1.285c0,.481-.053,7.228-.053,8.727a8.24,8.24,0,0,1-.106,2.569c-.216.59.106.857-.216,1.5v4.068s-.266.053-.319.482-.269.589-.59.267-.374-.32-.321-1.071.162-.856-.053-1.444a17.446,17.446,0,0,1-.16-3.48c0-.965.588-4.123.535-4.606s.321-5.729.214-6.96a23.2,23.2,0,0,1,.107-3.534,16.43,16.43,0,0,0,.322-3.48" transform="translate(-21.403 -44.844)" fill="#585858"/>
  <path id="Path_722" data-name="Path 722" d="M50.337,70.869c-.064,1.284.053,2.248.535,2.622s.91-.159,1.5-.587a7.837,7.837,0,0,0,2.3-2.732c.322-.963.7-1.606.428-2.142s-1.124-1.124-1.5-.8-3.213,2.57-3.266,3.641" transform="translate(-21.801 -45.117)" fill="#585858"/>
  <path id="Path_723" data-name="Path 723" d="M50.754,77.694a4.772,4.772,0,0,0,.214,1.071,10.833,10.833,0,0,1,.535,2.087,3,3,0,0,0,1.981,1.714h1.232c.642,0,1.177.053,1.445-.215s.322-.373.643-.373-.481-.7-.75-1.018.161-.376.321-.376.375-.32-.374-.909a8.861,8.861,0,0,0-3.213-1.714c-1.017-.16-2.142-.642-2.035-.266" transform="translate(-21.843 -46.16)" fill="#585858"/>
  <path id="Path_724" data-name="Path 724" d="M36.743,74.382c1.077.324.963.482,1.659.32a6.391,6.391,0,0,1,1.766-.267c.375.053.428.053.858-.267s1.338-.162.857-.965a4.766,4.766,0,0,0-3.963-1.981c-1.766.161-2.462.535-2.409.75s-.32,0,.053.482.643,1.766,1.179,1.928" transform="translate(-20.306 -45.525)" fill="#585858"/>
  <path id="Path_725" data-name="Path 725" d="M43,80.831c-.055-.214.16-.911-.322-.8a8.072,8.072,0,0,0-4.122,2.409c-1.245,1.477-1.232,1.659-.964,2.089s.214.7.535.642a.711.711,0,0,1,.75.214c.321.268.375.75,1.124.428s1.179-.428,1.446-.749.857-.482,1.339-1.071,1.82-1.82.214-3.159" transform="translate(-20.511 -46.407)" fill="#585858"/>
  <path id="Path_726" data-name="Path 726" d="M196.98,98.965a1.767,1.767,0,1,1-1.766-1.767,1.766,1.766,0,0,1,1.766,1.767m-1.766,1.4a1.4,1.4,0,1,0-1.4-1.4,1.405,1.405,0,0,0,1.4,1.4m.429-.489-.519-.66h-.089v.614h-.352V98.044h.459a.624.624,0,0,1,.661.589.541.541,0,0,1-.335.5l.478.571Zm-.5-1.011c.149,0,.3-.083.3-.232s-.107-.238-.3-.238h-.107v.471Z" transform="translate(-36.132 -48.127)" fill="#585858"/>
</svg>
